<mxfile host="app.diagrams.net" modified="2023-07-12T20:31:50.117Z" agent="Mozilla/5.0 (Windows NT 10.0; Win64; x64) AppleWebKit/537.36 (KHTML, like Gecko) Chrome/114.0.0.0 Safari/537.36 Edg/114.0.1823.79" etag="upi0AgwzrUuX02ojvXD4" version="21.6.2" type="device">
  <diagram id="40jZv6QniYFH5Une2xSI" name="Page-1">
    <mxGraphModel dx="1266" dy="746" grid="1" gridSize="10" guides="1" tooltips="1" connect="1" arrows="1" fold="1" page="1" pageScale="1" pageWidth="850" pageHeight="1100" math="0" shadow="0">
      <root>
        <mxCell id="0" />
        <mxCell id="1" parent="0" />
        <mxCell id="hXJ-DL1KdzfRYZnM6yYy-1" value="&amp;lt;&amp;lt;device&amp;gt;&amp;gt;&lt;br&gt;Virtualized Server" style="verticalAlign=top;align=left;spacingTop=8;spacingLeft=2;spacingRight=12;shape=cube;size=10;direction=south;fontStyle=0;html=1;whiteSpace=wrap;" parent="1" vertex="1">
          <mxGeometry x="600" y="10" width="480" height="260" as="geometry" />
        </mxCell>
        <mxCell id="hXJ-DL1KdzfRYZnM6yYy-2" value="&amp;lt;&amp;lt;execution environment&amp;gt;&amp;gt;&lt;br&gt;HTTP Server" style="verticalAlign=top;align=left;spacingTop=8;spacingLeft=2;spacingRight=12;shape=cube;size=10;direction=south;fontStyle=0;html=1;whiteSpace=wrap;" parent="1" vertex="1">
          <mxGeometry x="630" y="67.5" width="270" height="155" as="geometry" />
        </mxCell>
        <mxCell id="hXJ-DL1KdzfRYZnM6yYy-7" style="edgeStyle=orthogonalEdgeStyle;rounded=0;orthogonalLoop=1;jettySize=auto;html=1;exitX=0;exitY=0.5;exitDx=0;exitDy=0;exitPerimeter=0;entryX=0;entryY=0;entryDx=72.5;entryDy=0;entryPerimeter=0;endArrow=none;endFill=0;" parent="1" source="hXJ-DL1KdzfRYZnM6yYy-3" target="hXJ-DL1KdzfRYZnM6yYy-2" edge="1">
          <mxGeometry relative="1" as="geometry" />
        </mxCell>
        <mxCell id="hXJ-DL1KdzfRYZnM6yYy-8" value="TCP/IP" style="edgeLabel;html=1;align=center;verticalAlign=middle;resizable=0;points=[];" parent="hXJ-DL1KdzfRYZnM6yYy-7" vertex="1" connectable="0">
          <mxGeometry x="0.1275" y="1" relative="1" as="geometry">
            <mxPoint x="-1" y="-9" as="offset" />
          </mxGeometry>
        </mxCell>
        <mxCell id="hXJ-DL1KdzfRYZnM6yYy-3" value="Database" style="shape=cylinder3;whiteSpace=wrap;html=1;boundedLbl=1;backgroundOutline=1;size=15;" parent="1" vertex="1">
          <mxGeometry x="977" y="110" width="60" height="60" as="geometry" />
        </mxCell>
        <mxCell id="hXJ-DL1KdzfRYZnM6yYy-4" value="«artifact»&lt;br&gt;&lt;b&gt;Front end site&lt;/b&gt;" style="html=1;whiteSpace=wrap;" parent="1" vertex="1">
          <mxGeometry x="770" y="135" width="110" height="50" as="geometry" />
        </mxCell>
        <mxCell id="hXJ-DL1KdzfRYZnM6yYy-5" value="«artifact»&lt;br&gt;&lt;b&gt;Back end API&lt;/b&gt;" style="html=1;whiteSpace=wrap;" parent="1" vertex="1">
          <mxGeometry x="640" y="135" width="110" height="50" as="geometry" />
        </mxCell>
        <mxCell id="hXJ-DL1KdzfRYZnM6yYy-9" style="rounded=0;orthogonalLoop=1;jettySize=auto;html=1;exitX=0;exitY=0;exitDx=135;exitDy=480;exitPerimeter=0;endArrow=none;endFill=0;entryX=0;entryY=0;entryDx=110;entryDy=0;entryPerimeter=0;" parent="1" source="hXJ-DL1KdzfRYZnM6yYy-1" target="hXJ-DL1KdzfRYZnM6yYy-11" edge="1">
          <mxGeometry relative="1" as="geometry">
            <mxPoint x="580" y="60" as="sourcePoint" />
            <mxPoint x="710" y="120" as="targetPoint" />
          </mxGeometry>
        </mxCell>
        <mxCell id="hXJ-DL1KdzfRYZnM6yYy-10" value="HTTP" style="edgeLabel;html=1;align=center;verticalAlign=middle;resizable=0;points=[];" parent="hXJ-DL1KdzfRYZnM6yYy-9" vertex="1" connectable="0">
          <mxGeometry x="0.1275" y="1" relative="1" as="geometry">
            <mxPoint x="8" y="-10" as="offset" />
          </mxGeometry>
        </mxCell>
        <mxCell id="hXJ-DL1KdzfRYZnM6yYy-11" value="&amp;lt;&amp;lt;device&amp;gt;&amp;gt;&lt;br&gt;Client" style="verticalAlign=top;align=left;spacingTop=8;spacingLeft=2;spacingRight=12;shape=cube;size=10;direction=south;fontStyle=0;html=1;whiteSpace=wrap;" parent="1" vertex="1">
          <mxGeometry x="90" y="35" width="390" height="230" as="geometry" />
        </mxCell>
        <mxCell id="hXJ-DL1KdzfRYZnM6yYy-12" value="&amp;lt;&amp;lt;execution environment&amp;gt;&amp;gt;&lt;br&gt;Web browser" style="verticalAlign=top;align=left;spacingTop=8;spacingLeft=2;spacingRight=12;shape=cube;size=10;direction=south;fontStyle=0;html=1;whiteSpace=wrap;" parent="1" vertex="1">
          <mxGeometry x="120" y="105" width="170" height="140" as="geometry" />
        </mxCell>
        <mxCell id="hXJ-DL1KdzfRYZnM6yYy-13" value="«artifact»&lt;br&gt;&lt;b&gt;HTML/JS&lt;br&gt;&lt;/b&gt;" style="html=1;whiteSpace=wrap;" parent="1" vertex="1">
          <mxGeometry x="140" y="165" width="110" height="50" as="geometry" />
        </mxCell>
        <mxCell id="hXJ-DL1KdzfRYZnM6yYy-14" value="&amp;lt;&amp;lt;subdevice&amp;gt;&amp;gt;&lt;br&gt;Camera" style="verticalAlign=top;align=left;spacingTop=8;spacingLeft=2;spacingRight=12;shape=cube;size=10;direction=south;fontStyle=0;html=1;whiteSpace=wrap;" parent="1" vertex="1">
          <mxGeometry x="350" y="132" width="100" height="65" as="geometry" />
        </mxCell>
        <mxCell id="hXJ-DL1KdzfRYZnM6yYy-15" style="rounded=0;orthogonalLoop=1;jettySize=auto;html=1;exitX=0;exitY=0;exitDx=65;exitDy=0;exitPerimeter=0;endArrow=none;endFill=0;entryX=0;entryY=0;entryDx=37.5;entryDy=100;entryPerimeter=0;" parent="1" source="hXJ-DL1KdzfRYZnM6yYy-12" target="hXJ-DL1KdzfRYZnM6yYy-14" edge="1">
          <mxGeometry relative="1" as="geometry">
            <mxPoint x="-20" y="250" as="sourcePoint" />
            <mxPoint x="100" y="175" as="targetPoint" />
          </mxGeometry>
        </mxCell>
        <mxCell id="hXJ-DL1KdzfRYZnM6yYy-17" value="&amp;lt;&amp;lt;device&amp;gt;&amp;gt;&lt;br&gt;Machine" style="verticalAlign=top;align=left;spacingTop=8;spacingLeft=2;spacingRight=12;shape=cube;size=10;direction=south;fontStyle=0;html=1;whiteSpace=wrap;" parent="1" vertex="1">
          <mxGeometry x="600" y="300" width="390" height="250" as="geometry" />
        </mxCell>
        <mxCell id="hXJ-DL1KdzfRYZnM6yYy-18" value="&amp;lt;&amp;lt;microcontroller&amp;gt;&amp;gt;&lt;br&gt;Logic unit" style="verticalAlign=top;align=left;spacingTop=8;spacingLeft=2;spacingRight=12;shape=cube;size=10;direction=south;fontStyle=0;html=1;whiteSpace=wrap;" parent="1" vertex="1">
          <mxGeometry x="627.5" y="370" width="130" height="65" as="geometry" />
        </mxCell>
        <mxCell id="hXJ-DL1KdzfRYZnM6yYy-38" style="rounded=0;orthogonalLoop=1;jettySize=auto;html=1;exitX=0;exitY=0;exitDx=65;exitDy=70;exitPerimeter=0;entryX=0;entryY=0.538;entryDx=0;entryDy=0;entryPerimeter=0;endArrow=none;endFill=0;" parent="1" source="hXJ-DL1KdzfRYZnM6yYy-19" target="hXJ-DL1KdzfRYZnM6yYy-37" edge="1">
          <mxGeometry relative="1" as="geometry" />
        </mxCell>
        <mxCell id="hXJ-DL1KdzfRYZnM6yYy-39" value="SPI and electrical signals" style="edgeLabel;html=1;align=center;verticalAlign=middle;resizable=0;points=[];" parent="hXJ-DL1KdzfRYZnM6yYy-38" vertex="1" connectable="0">
          <mxGeometry x="-0.1193" relative="1" as="geometry">
            <mxPoint as="offset" />
          </mxGeometry>
        </mxCell>
        <mxCell id="hXJ-DL1KdzfRYZnM6yYy-19" value="&amp;lt;&amp;lt;microcontroller&amp;gt;&amp;gt;&lt;br&gt;Display unit" style="verticalAlign=top;align=left;spacingTop=8;spacingLeft=2;spacingRight=12;shape=cube;size=10;direction=south;fontStyle=0;html=1;whiteSpace=wrap;" parent="1" vertex="1">
          <mxGeometry x="832.5" y="370" width="130" height="65" as="geometry" />
        </mxCell>
        <mxCell id="hXJ-DL1KdzfRYZnM6yYy-21" style="rounded=0;orthogonalLoop=1;jettySize=auto;html=1;exitX=0;exitY=0;exitDx=27.5;exitDy=0;exitPerimeter=0;endArrow=none;endFill=0;entryX=0.423;entryY=0.999;entryDx=0;entryDy=0;entryPerimeter=0;" parent="1" source="hXJ-DL1KdzfRYZnM6yYy-18" target="hXJ-DL1KdzfRYZnM6yYy-19" edge="1">
          <mxGeometry relative="1" as="geometry">
            <mxPoint x="747.5" y="422.5" as="sourcePoint" />
            <mxPoint x="867.5" y="347.5" as="targetPoint" />
          </mxGeometry>
        </mxCell>
        <mxCell id="hXJ-DL1KdzfRYZnM6yYy-22" value="UART" style="edgeLabel;html=1;align=center;verticalAlign=middle;resizable=0;points=[];" parent="hXJ-DL1KdzfRYZnM6yYy-21" vertex="1" connectable="0">
          <mxGeometry x="0.1275" y="1" relative="1" as="geometry">
            <mxPoint x="-7" y="-12" as="offset" />
          </mxGeometry>
        </mxCell>
        <mxCell id="hXJ-DL1KdzfRYZnM6yYy-26" value="&amp;lt;&amp;lt;device&amp;gt;&amp;gt;&lt;br&gt;Remote control" style="verticalAlign=top;align=left;spacingTop=8;spacingLeft=2;spacingRight=12;shape=cube;size=10;direction=south;fontStyle=0;html=1;whiteSpace=wrap;" parent="1" vertex="1">
          <mxGeometry x="120" y="363" width="350" height="190" as="geometry" />
        </mxCell>
        <mxCell id="hXJ-DL1KdzfRYZnM6yYy-28" value="&amp;lt;&amp;lt;subdevice&amp;gt;&amp;gt;&lt;br&gt;Radio transceiver" style="verticalAlign=top;align=left;spacingTop=8;spacingLeft=2;spacingRight=12;shape=cube;size=10;direction=south;fontStyle=0;html=1;whiteSpace=wrap;" parent="1" vertex="1">
          <mxGeometry x="627.5" y="470" width="130" height="65" as="geometry" />
        </mxCell>
        <mxCell id="hXJ-DL1KdzfRYZnM6yYy-29" style="rounded=0;orthogonalLoop=1;jettySize=auto;html=1;exitX=0;exitY=0;exitDx=65;exitDy=70;exitPerimeter=0;endArrow=none;endFill=0;entryX=-0.004;entryY=0.539;entryDx=0;entryDy=0;entryPerimeter=0;" parent="1" source="hXJ-DL1KdzfRYZnM6yYy-18" target="hXJ-DL1KdzfRYZnM6yYy-28" edge="1">
          <mxGeometry relative="1" as="geometry">
            <mxPoint x="768" y="408" as="sourcePoint" />
            <mxPoint x="843" y="407" as="targetPoint" />
          </mxGeometry>
        </mxCell>
        <mxCell id="hXJ-DL1KdzfRYZnM6yYy-30" value="SPI" style="edgeLabel;html=1;align=center;verticalAlign=middle;resizable=0;points=[];" parent="hXJ-DL1KdzfRYZnM6yYy-29" vertex="1" connectable="0">
          <mxGeometry x="0.1275" y="1" relative="1" as="geometry">
            <mxPoint x="-18" y="-5" as="offset" />
          </mxGeometry>
        </mxCell>
        <mxCell id="hXJ-DL1KdzfRYZnM6yYy-31" value="&amp;lt;&amp;lt;subdevice&amp;gt;&amp;gt;&lt;br&gt;Radio transceiver" style="verticalAlign=top;align=left;spacingTop=8;spacingLeft=2;spacingRight=12;shape=cube;size=10;direction=south;fontStyle=0;html=1;whiteSpace=wrap;" parent="1" vertex="1">
          <mxGeometry x="320" y="440.5" width="130" height="65" as="geometry" />
        </mxCell>
        <mxCell id="hXJ-DL1KdzfRYZnM6yYy-32" value="&amp;lt;&amp;lt;microcontroller&amp;gt;&amp;gt;&lt;br&gt;Buttons logic" style="verticalAlign=top;align=left;spacingTop=8;spacingLeft=2;spacingRight=12;shape=cube;size=10;direction=south;fontStyle=0;html=1;whiteSpace=wrap;" parent="1" vertex="1">
          <mxGeometry x="130" y="440.5" width="130" height="65" as="geometry" />
        </mxCell>
        <mxCell id="hXJ-DL1KdzfRYZnM6yYy-33" style="rounded=0;orthogonalLoop=1;jettySize=auto;html=1;exitX=0;exitY=0;exitDx=27.5;exitDy=0;exitPerimeter=0;endArrow=none;endFill=0;entryX=0.43;entryY=0.999;entryDx=0;entryDy=0;entryPerimeter=0;" parent="1" source="hXJ-DL1KdzfRYZnM6yYy-32" target="hXJ-DL1KdzfRYZnM6yYy-31" edge="1">
          <mxGeometry relative="1" as="geometry">
            <mxPoint x="708" y="418" as="sourcePoint" />
            <mxPoint x="707" y="453" as="targetPoint" />
          </mxGeometry>
        </mxCell>
        <mxCell id="hXJ-DL1KdzfRYZnM6yYy-34" value="SPI" style="edgeLabel;html=1;align=center;verticalAlign=middle;resizable=0;points=[];" parent="hXJ-DL1KdzfRYZnM6yYy-33" vertex="1" connectable="0">
          <mxGeometry x="0.1275" y="1" relative="1" as="geometry">
            <mxPoint x="-4" y="-9" as="offset" />
          </mxGeometry>
        </mxCell>
        <mxCell id="hXJ-DL1KdzfRYZnM6yYy-35" style="rounded=0;orthogonalLoop=1;jettySize=auto;html=1;exitX=0;exitY=0;exitDx=90;exitDy=0;exitPerimeter=0;endArrow=none;endFill=0;entryX=0.617;entryY=1;entryDx=0;entryDy=0;entryPerimeter=0;" parent="1" source="hXJ-DL1KdzfRYZnM6yYy-26" target="hXJ-DL1KdzfRYZnM6yYy-17" edge="1">
          <mxGeometry relative="1" as="geometry">
            <mxPoint x="501" y="225" as="sourcePoint" />
            <mxPoint x="620" y="394" as="targetPoint" />
          </mxGeometry>
        </mxCell>
        <mxCell id="hXJ-DL1KdzfRYZnM6yYy-36" value="Radio frequency" style="edgeLabel;html=1;align=center;verticalAlign=middle;resizable=0;points=[];" parent="hXJ-DL1KdzfRYZnM6yYy-35" vertex="1" connectable="0">
          <mxGeometry x="0.1275" y="1" relative="1" as="geometry">
            <mxPoint x="-17" y="-10" as="offset" />
          </mxGeometry>
        </mxCell>
        <mxCell id="hXJ-DL1KdzfRYZnM6yYy-37" value="&amp;lt;&amp;lt;subdevice&amp;gt;&amp;gt;&lt;br&gt;Display hardware" style="verticalAlign=top;align=left;spacingTop=8;spacingLeft=2;spacingRight=12;shape=cube;size=10;direction=south;fontStyle=0;html=1;whiteSpace=wrap;" parent="1" vertex="1">
          <mxGeometry x="832.5" y="467.5" width="130" height="65" as="geometry" />
        </mxCell>
      </root>
    </mxGraphModel>
  </diagram>
</mxfile>
